<svg width="16" height="16" viewBox="0 0 16 16" fill="none" xmlns="http://www.w3.org/2000/svg">
<mask id="path-2-inside-1_4070_1910" fill="white">
<path fill-rule="evenodd" clip-rule="evenodd" d="M10.1651 5.25L8 1.5L5.83494 5.25H7.5V14C7.5 14.2761 7.72386 14.5 8 14.5C8.27614 14.5 8.5 14.2761 8.5 14V5.25H10.1651Z"/>
</mask>
<path fill-rule="evenodd" clip-rule="evenodd" d="M10.1651 5.25L8 1.5L5.83494 5.25H7.5V14C7.5 14.2761 7.72386 14.5 8 14.5C8.27614 14.5 8.5 14.2761 8.5 14V5.25H10.1651Z" fill="#000002"/>
<path d="M8 1.5L8.21651 1.375L8 1L7.78349 1.375L8 1.5ZM10.1651 5.25V5.5H10.5981L10.3816 5.125L10.1651 5.25ZM5.83494 5.25L5.61843 5.125L5.40192 5.5H5.83494V5.25ZM7.5 5.25H7.75V5H7.5V5.25ZM8.5 5.25V5H8.25V5.25H8.5ZM7.78349 1.625L9.94856 5.375L10.3816 5.125L8.21651 1.375L7.78349 1.625ZM6.05144 5.375L8.21651 1.625L7.78349 1.375L5.61843 5.125L6.05144 5.375ZM7.5 5H5.83494V5.5H7.5V5ZM7.75 14V5.25H7.25V14H7.75ZM8 14.25C7.86193 14.25 7.75 14.1381 7.75 14H7.25C7.25 14.4142 7.58579 14.75 8 14.75V14.25ZM8.25 14C8.25 14.1381 8.13807 14.25 8 14.25V14.75C8.41421 14.75 8.75 14.4142 8.75 14H8.25ZM8.25 5.25V14H8.75V5.25H8.25ZM10.1651 5H8.5V5.5H10.1651V5Z" fill="white" mask="url(#path-2-inside-1_4070_1910)"/>
<circle cx="8" cy="9" r="2.875" fill="#000002" stroke="white" stroke-width="0.25"/>
<path d="M8.99553 10L8.60174 8.98805H7.30589L6.91668 10H6.5L7.77753 6.71689H8.14842L9.42137 10H8.99553ZM8.11179 7.63268C8.10263 7.60826 8.08737 7.564 8.066 7.49989C8.04463 7.43579 8.02326 7.37016 8.00189 7.303C7.98358 7.23279 7.96832 7.17937 7.95611 7.14274C7.94084 7.20379 7.92405 7.26637 7.90574 7.33047C7.89047 7.39153 7.87368 7.448 7.85537 7.49989C7.84011 7.55179 7.82637 7.59605 7.81416 7.63268L7.44326 8.62174H8.47811L8.11179 7.63268Z" fill="white"/>
</svg>
