<svg width="16" height="16" viewBox="0 0 16 16" fill="none" xmlns="http://www.w3.org/2000/svg">
<mask id="path-2-inside-1_2698_120852" fill="white">
<path fill-rule="evenodd" clip-rule="evenodd" d="M10.6784 6.70133L11.7529 2.71068L7.74302 3.77997L8.87169 4.90324L7.34626 6.42137L8.02416 7.09603L9.54959 5.5779L10.6784 6.70133Z"/>
</mask>
<path fill-rule="evenodd" clip-rule="evenodd" d="M10.6784 6.70133L11.7529 2.71068L7.74302 3.77997L8.87169 4.90324L7.34626 6.42137L8.02416 7.09603L9.54959 5.5779L10.6784 6.70133Z" fill="#43A0F8"/>
<path d="M11.7529 2.71068L11.9949 2.77523L12.1073 2.35797L11.688 2.46978L11.7529 2.71068ZM10.6784 6.70133L10.5012 6.87768L10.8081 7.18313L10.9205 6.76588L10.6784 6.70133ZM7.74302 3.77997L7.67816 3.53907L7.2589 3.65087L7.56582 3.95632L7.74302 3.77997ZM8.87169 4.90324L9.04889 5.07959L9.22609 4.90324L9.04889 4.72688L8.87169 4.90324ZM7.34626 6.42137L7.16906 6.24502L6.99186 6.42137L7.16906 6.59772L7.34626 6.42137ZM8.02416 7.09603L7.84696 7.27238L8.02416 7.44874L8.20136 7.27238L8.02416 7.09603ZM9.54959 5.5779L9.72679 5.40154L9.54959 5.22519L9.37239 5.40154L9.54959 5.5779ZM11.5108 2.64613L10.4364 6.63678L10.9205 6.76588L11.9949 2.77523L11.5108 2.64613ZM7.80788 4.02087L11.8177 2.95158L11.688 2.46978L7.67816 3.53907L7.80788 4.02087ZM9.04889 4.72688L7.92022 3.60362L7.56582 3.95632L8.69449 5.07959L9.04889 4.72688ZM7.52346 6.59772L9.04889 5.07959L8.69449 4.72688L7.16906 6.24502L7.52346 6.59772ZM8.20136 6.91968L7.52346 6.24502L7.16906 6.59772L7.84696 7.27238L8.20136 6.91968ZM9.37239 5.40154L7.84696 6.91968L8.20136 7.27238L9.72679 5.75425L9.37239 5.40154ZM10.8556 6.52497L9.72679 5.40154L9.37239 5.75425L10.5012 6.87768L10.8556 6.52497Z" fill="black" mask="url(#path-2-inside-1_2698_120852)"/>
<path d="M7.20801 11.867C7.20801 11.6713 7.36666 11.5127 7.56236 11.5127C7.75806 11.5127 7.91671 11.6713 7.91671 11.867V13.7707C7.91671 13.9664 7.75806 14.125 7.56236 14.125C7.36666 14.125 7.20801 13.9664 7.20801 13.7707V11.867Z" fill="#43A0F8" stroke="black" stroke-width="0.25"/>
<path d="M10.407 8.88284C10.407 10.3941 9.17583 11.6202 7.65588 11.6202C6.13593 11.6202 4.90479 10.3941 4.90479 8.88284C4.90479 7.37162 6.13593 6.14551 7.65588 6.14551C9.17583 6.14551 10.407 7.37162 10.407 8.88284Z" fill="#43A0F8" stroke="black" stroke-width="0.25"/>
<path d="M7.59604 6.75114C8.00509 6.75114 8.31341 6.81219 8.52098 6.9343C8.73162 7.05335 8.83693 7.26245 8.83693 7.56161C8.83693 7.68982 8.81251 7.8043 8.76367 7.90503C8.71788 8.00272 8.64767 8.08514 8.55304 8.1523C8.46146 8.2164 8.34851 8.26067 8.21419 8.28509V8.30798C8.35156 8.32935 8.47519 8.36903 8.58509 8.42703C8.69804 8.48503 8.78656 8.56746 8.85067 8.6743C8.91477 8.78114 8.94683 8.92003 8.94683 9.09098C8.94683 9.2894 8.90104 9.45882 8.80946 9.59924C8.71788 9.73661 8.58662 9.84193 8.41567 9.91519C8.24777 9.9854 8.0463 10.0205 7.81125 10.0205H6.66193V6.75114H7.59604ZM7.67846 8.14314C7.9593 8.14314 8.15162 8.09888 8.25541 8.01035C8.35919 7.91877 8.41109 7.78446 8.41109 7.6074C8.41109 7.4273 8.34698 7.29909 8.21877 7.22277C8.09362 7.1434 7.89214 7.10372 7.61435 7.10372H7.07404V8.14314H7.67846ZM7.07404 8.48656V9.67251H7.73341C8.02341 9.67251 8.22488 9.61603 8.33783 9.50309C8.45077 9.39014 8.50725 9.24209 8.50725 9.05893C8.50725 8.94293 8.4813 8.84219 8.42941 8.75672C8.38056 8.67124 8.29662 8.60561 8.17756 8.55982C8.06156 8.51098 7.90283 8.48656 7.70135 8.48656H7.07404Z" fill="black"/>
</svg>
