<svg width="16" height="16" viewBox="0 0 16 16" fill="none" xmlns="http://www.w3.org/2000/svg">
<circle cx="8" cy="8" r="6.25" fill="#CD39F6" stroke="black" stroke-width="0.5"/>
<path d="M5.87327 8.544C5.87327 8.864 5.81327 9.132 5.69327 9.348C5.57593 9.564 5.4066 9.72667 5.18527 9.836C4.96393 9.94533 4.69593 10 4.38127 10H3.58527V7.144H4.46527C4.75327 7.144 5.0026 7.19733 5.21327 7.304C5.42393 7.41067 5.5866 7.568 5.70127 7.776C5.81593 7.98133 5.87327 8.23733 5.87327 8.544ZM5.49327 8.556C5.49327 8.30267 5.4506 8.09467 5.36527 7.932C5.2826 7.76933 5.15993 7.64933 4.99727 7.572C4.83727 7.492 4.6426 7.452 4.41327 7.452H3.94527V9.692H4.33327C4.71993 9.692 5.00927 9.59733 5.20127 9.408C5.39593 9.216 5.49327 8.932 5.49327 8.556ZM7.76714 10L6.82714 7.496H6.81114C6.81647 7.54933 6.82047 7.61733 6.82314 7.7C6.82847 7.78267 6.83247 7.87333 6.83514 7.972C6.83781 8.068 6.83914 8.16667 6.83914 8.268V10H6.50714V7.144H7.03914L7.91914 9.484H7.93514L8.83114 7.144H9.35914V10H9.00314V8.244C9.00314 8.15067 9.00447 8.05867 9.00714 7.968C9.00981 7.87467 9.01381 7.788 9.01914 7.708C9.02447 7.62533 9.02847 7.556 9.03114 7.5H9.01514L8.06314 10H7.76714ZM11.928 10L11.584 9.116H10.452L10.112 10H9.74805L10.864 7.132H11.188L12.3 10H11.928ZM11.156 7.932C11.148 7.91067 11.1347 7.872 11.116 7.816C11.0974 7.76 11.0787 7.70267 11.06 7.644C11.044 7.58267 11.0307 7.536 11.02 7.504C11.0067 7.55733 10.992 7.612 10.976 7.668C10.9627 7.72133 10.948 7.77067 10.932 7.816C10.9187 7.86133 10.9067 7.9 10.896 7.932L10.572 8.796H11.476L11.156 7.932Z" fill="black"/>
</svg>
