<svg width="16" height="16" viewBox="0 0 16 16" fill="none" xmlns="http://www.w3.org/2000/svg">
<mask id="path-2-inside-1_3201_153954" fill="white">
<path fill-rule="evenodd" clip-rule="evenodd" d="M8.5 3H7.5V9.5H5V10.5H7.5V14.5H8.5V10.5H11V9.5H8.5V3Z"/>
</mask>
<path fill-rule="evenodd" clip-rule="evenodd" d="M8.5 3H7.5V9.5H5V10.5H7.5V14.5H8.5V10.5H11V9.5H8.5V3Z" fill="#FE7E26"/>
<path d="M7.5 3V2.75H7.25V3H7.5ZM8.5 3H8.75V2.75H8.5V3ZM7.5 9.5V9.75H7.75V9.5H7.5ZM5 9.5V9.25H4.75V9.5H5ZM5 10.5H4.75V10.75H5V10.5ZM7.5 10.5H7.75V10.25H7.5V10.5ZM7.5 14.5H7.25V14.75H7.5V14.5ZM8.5 14.5V14.75H8.75V14.5H8.5ZM8.5 10.5V10.25H8.25V10.5H8.5ZM11 10.5V10.75H11.25V10.5H11ZM11 9.5H11.25V9.25H11V9.5ZM8.5 9.5H8.25V9.75H8.5V9.5ZM7.5 3.25H8.5V2.75H7.5V3.25ZM7.75 9.5V3H7.25V9.5H7.75ZM5 9.75H7.5V9.25H5V9.75ZM5.25 10.5V9.5H4.75V10.5H5.25ZM7.5 10.25H5V10.75H7.5V10.25ZM7.75 14.5V10.5H7.25V14.5H7.75ZM8.5 14.25H7.5V14.75H8.5V14.25ZM8.25 10.5V14.5H8.75V10.5H8.25ZM11 10.25H8.5V10.75H11V10.25ZM10.75 9.5V10.5H11.25V9.5H10.75ZM8.5 9.75H11V9.25H8.5V9.75ZM8.25 3V9.5H8.75V3H8.25Z" fill="black" mask="url(#path-2-inside-1_3201_153954)"/>
<circle cx="8" cy="5" r="3.375" fill="#FE7E26" stroke="black" stroke-width="0.25"/>
<line x1="2.14645" y1="13.6464" x2="13.1464" y2="2.64645" stroke="black"/>
</svg>
