<svg width="16" height="16" viewBox="0 0 16 16" fill="none" xmlns="http://www.w3.org/2000/svg">
<mask id="path-2-inside-1_3201_153915" fill="white">
<path fill-rule="evenodd" clip-rule="evenodd" d="M8.4375 3H7.4375V9.5H4.9375V10.5H7.4375V14.5H8.4375V10.5H10.9375V9.5H8.4375V3Z"/>
</mask>
<path fill-rule="evenodd" clip-rule="evenodd" d="M8.4375 3H7.4375V9.5H4.9375V10.5H7.4375V14.5H8.4375V10.5H10.9375V9.5H8.4375V3Z" fill="#FF0000"/>
<path d="M7.4375 3V2.75H7.1875V3H7.4375ZM8.4375 3H8.6875V2.75H8.4375V3ZM7.4375 9.5V9.75H7.6875V9.5H7.4375ZM4.9375 9.5V9.25H4.6875V9.5H4.9375ZM4.9375 10.5H4.6875V10.75H4.9375V10.5ZM7.4375 10.5H7.6875V10.25H7.4375V10.5ZM7.4375 14.5H7.1875V14.75H7.4375V14.5ZM8.4375 14.5V14.75H8.6875V14.5H8.4375ZM8.4375 10.5V10.25H8.1875V10.5H8.4375ZM10.9375 10.5V10.75H11.1875V10.5H10.9375ZM10.9375 9.5H11.1875V9.25H10.9375V9.5ZM8.4375 9.5H8.1875V9.75H8.4375V9.5ZM7.4375 3.25H8.4375V2.75H7.4375V3.25ZM7.6875 9.5V3H7.1875V9.5H7.6875ZM4.9375 9.75H7.4375V9.25H4.9375V9.75ZM5.1875 10.5V9.5H4.6875V10.5H5.1875ZM7.4375 10.25H4.9375V10.75H7.4375V10.25ZM7.6875 14.5V10.5H7.1875V14.5H7.6875ZM8.4375 14.25H7.4375V14.75H8.4375V14.25ZM8.1875 10.5V14.5H8.6875V10.5H8.1875ZM10.9375 10.25H8.4375V10.75H10.9375V10.25ZM10.6875 9.5V10.5H11.1875V9.5H10.6875ZM8.4375 9.75H10.9375V9.25H8.4375V9.75ZM8.1875 3V9.5H8.6875V3H8.1875Z" fill="black" mask="url(#path-2-inside-1_3201_153915)"/>
<circle cx="7.9375" cy="5" r="3.375" fill="#FF0000" stroke="black" stroke-width="0.25"/>
<line x1="2.14645" y1="13.6464" x2="13.1464" y2="2.64645" stroke="black"/>
</svg>
