<svg width="16" height="16" viewBox="0 0 16 16" fill="none" xmlns="http://www.w3.org/2000/svg">
<path d="M2.36396 9.47973V6.51973H6.94315H8.36751H13.9081L13.9089 6.51986C13.9118 6.52046 13.9166 6.52159 13.9231 6.52356C13.9361 6.52751 13.9559 6.53485 13.9803 6.54812C14.0287 6.57455 14.0965 6.62512 14.1656 6.72135C14.3041 6.91427 14.4501 7.2939 14.4501 8.0354C14.4501 8.77737 14.3039 9.13783 14.1669 9.31202C14.0987 9.39874 14.0321 9.44026 13.9847 9.46034C13.9608 9.47045 13.9414 9.47529 13.9287 9.47761C13.9223 9.47877 13.9176 9.4793 13.9147 9.47954L13.912 9.47972L13.912 9.47973L13.9121 9.47973L13.9122 9.47973M2.36396 9.47973L13.9124 9.52973C13.9124 9.47973 13.9123 9.47973 13.9122 9.47973M2.36396 9.47973H13.9119H13.9122M2.36396 9.47973H13.9122" fill="#E7E7E7" stroke="black" stroke-width="0.1"/>
<path d="M3.07785 7.99973C3.07785 8.4157 2.98804 8.78981 2.84531 9.05812C2.70142 9.3286 2.51116 9.47973 2.31392 9.47973C2.11669 9.47973 1.92643 9.3286 1.78253 9.05812C1.6398 8.78981 1.55 8.4157 1.55 7.99973C1.55 7.58376 1.6398 7.20964 1.78253 6.94134C1.92643 6.67085 2.11669 6.51973 2.31392 6.51973C2.51116 6.51973 2.70142 6.67085 2.84531 6.94134C2.98804 7.20964 3.07785 7.58376 3.07785 7.99973Z" fill="#B0B0B0" stroke="black" stroke-width="0.1"/>
<g clip-path="url(#clip0_1597_272017)">
<path d="M7.89453 6.76131L8.39492 6.61338C8.46431 6.59292 8.5377 6.58998 8.6085 6.60484C8.67931 6.6197 8.74532 6.65189 8.80064 6.69852C8.85595 6.74515 8.89884 6.80478 8.92546 6.87205C8.95208 6.93932 8.96159 7.01215 8.95316 7.084L8.60985 9.99672C8.60141 10.0665 8.56919 10.1313 8.5186 10.1801C8.46801 10.229 8.40214 10.2589 8.33207 10.2649C8.26201 10.2708 8.19203 10.2525 8.13391 10.2129C8.07579 10.1733 8.03307 10.1149 8.01294 10.0476L7.44073 8.11205L7.03061 8.21961C6.92071 8.24816 6.80401 8.23285 6.70518 8.17693C6.60636 8.12102 6.53314 8.02887 6.50101 7.91996L6.01124 6.2633C5.97835 6.15203 5.991 6.03225 6.04642 5.9303C6.10184 5.82836 6.19549 5.75261 6.30676 5.71972L7.06418 5.49579C7.17545 5.4629 7.29524 5.47555 7.39718 5.53097C7.49912 5.58639 7.57487 5.68004 7.60777 5.79131L7.89453 6.76131Z" fill="#15CBF4"/>
</g>
<defs>
<clipPath id="clip0_1597_272017">
<rect width="7" height="7" fill="white" transform="translate(3.5 5.48438) rotate(-16.4696)"/>
</clipPath>
</defs>
</svg>
