<svg width="16" height="16" viewBox="0 0 16 16" fill="none" xmlns="http://www.w3.org/2000/svg">
<circle cx="8" cy="8" r="6.25" fill="#73FBFA" stroke="black" stroke-width="0.5"/>
<path d="M6.26909 10L5.32909 7.496H5.31309C5.31843 7.54933 5.32243 7.61733 5.32509 7.7C5.33043 7.78267 5.33443 7.87333 5.33709 7.972C5.33976 8.068 5.34109 8.16667 5.34109 8.268V10H5.00909V7.144H5.54109L6.42109 9.484H6.43709L7.33309 7.144H7.86109V10H7.50509V8.244C7.50509 8.15067 7.50643 8.05867 7.50909 7.968C7.51176 7.87467 7.51576 7.788 7.52109 7.708C7.52643 7.62533 7.53043 7.556 7.53309 7.5H7.51709L6.56509 10H6.26909ZM9.898 10L8.958 7.496H8.942C8.94733 7.54933 8.95133 7.61733 8.954 7.7C8.95933 7.78267 8.96333 7.87333 8.966 7.972C8.96867 8.068 8.97 8.16667 8.97 8.268V10H8.638V7.144H9.17L10.05 9.484H10.066L10.962 7.144H11.49V10H11.134V8.244C11.134 8.15067 11.1353 8.05867 11.138 7.968C11.1407 7.87467 11.1447 7.788 11.15 7.708C11.1553 7.62533 11.1593 7.556 11.162 7.5H11.146L10.194 10H9.898Z" fill="black"/>
</svg>
