<svg width="16" height="16" viewBox="0 0 16 16" fill="none" xmlns="http://www.w3.org/2000/svg">
<circle cx="8" cy="8" r="6.25" fill="#88FA80" stroke="black" stroke-width="0.5"/>
<path d="M6.192 7.125L5.3695 4.934H5.3555C5.36017 4.98067 5.36367 5.04017 5.366 5.1125C5.37067 5.18483 5.37417 5.26417 5.3765 5.3505C5.37883 5.4345 5.38 5.52083 5.38 5.6095V7.125H5.0895V4.626H5.555L6.325 6.6735H6.339L7.123 4.626H7.585V7.125H7.2735V5.5885C7.2735 5.50683 7.27467 5.42633 7.277 5.347C7.27933 5.26533 7.28283 5.1895 7.2875 5.1195C7.29217 5.04717 7.29567 4.9865 7.298 4.9375H7.284L6.451 7.125H6.192ZM9.36729 7.125L8.54479 4.934H8.53079C8.53546 4.98067 8.53896 5.04017 8.54129 5.1125C8.54596 5.18483 8.54946 5.26417 8.55179 5.3505C8.55413 5.4345 8.55529 5.52083 8.55529 5.6095V7.125H8.26479V4.626H8.73029L9.50029 6.6735H9.51429L10.2983 4.626H10.7603V7.125H10.4488V5.5885C10.4488 5.50683 10.45 5.42633 10.4523 5.347C10.4546 5.26533 10.4581 5.1895 10.4628 5.1195C10.4675 5.04717 10.471 4.9865 10.4733 4.9375H10.4593L9.62629 7.125H9.36729Z" fill="black"/>
<path d="M4.74881 10.499C4.74881 10.3077 4.76631 10.121 4.80131 9.93901C4.83864 9.75701 4.89581 9.58317 4.97281 9.41751C5.04981 9.25184 5.14664 9.09901 5.26331 8.95901H5.55381C5.39047 9.17834 5.26681 9.41984 5.18281 9.68351C5.10114 9.94717 5.06031 10.2178 5.06031 10.4955C5.06031 10.6752 5.07897 10.8537 5.11631 11.031C5.15364 11.2083 5.20847 11.3787 5.28081 11.542C5.35314 11.7077 5.44297 11.864 5.55031 12.011H5.26331C5.14664 11.8733 5.04981 11.7228 4.97281 11.5595C4.89581 11.3985 4.83864 11.2282 4.80131 11.0485C4.76631 10.8688 4.74881 10.6857 4.74881 10.499ZM7.41512 10.7895C7.41512 10.9388 7.37896 11.066 7.30662 11.171C7.23429 11.2737 7.13046 11.353 6.99512 11.409C6.86212 11.465 6.70462 11.493 6.52262 11.493C6.42929 11.493 6.33945 11.4883 6.25312 11.479C6.16912 11.4697 6.09212 11.4568 6.02212 11.4405C5.95212 11.4218 5.89029 11.3997 5.83662 11.374V11.073C5.92062 11.1103 6.02445 11.1442 6.14812 11.1745C6.27412 11.2048 6.40362 11.22 6.53662 11.22C6.66029 11.22 6.76412 11.2037 6.84812 11.171C6.93212 11.1383 6.99512 11.0917 7.03712 11.031C7.07912 10.9703 7.10012 10.8992 7.10012 10.8175C7.10012 10.7358 7.08262 10.667 7.04762 10.611C7.01262 10.555 6.95196 10.5037 6.86562 10.457C6.78162 10.408 6.66379 10.3567 6.51212 10.303C6.40479 10.2633 6.31029 10.2213 6.22862 10.177C6.14929 10.1303 6.08279 10.0778 6.02912 10.0195C5.97545 9.96117 5.93462 9.89467 5.90662 9.82001C5.88095 9.74534 5.86812 9.65901 5.86812 9.56101C5.86812 9.42801 5.90195 9.31484 5.96962 9.22151C6.03729 9.12584 6.13062 9.05234 6.24962 9.00101C6.37095 8.94967 6.50979 8.92401 6.66612 8.92401C6.80379 8.92401 6.92979 8.93684 7.04412 8.96251C7.15846 8.98817 7.26229 9.02201 7.35562 9.06401L7.25762 9.33351C7.17129 9.29617 7.07679 9.26467 6.97412 9.23901C6.87379 9.21334 6.76879 9.20051 6.65912 9.20051C6.55412 9.20051 6.46662 9.21567 6.39662 9.24601C6.32662 9.27634 6.27412 9.31951 6.23912 9.37551C6.20412 9.42917 6.18662 9.49217 6.18662 9.56451C6.18662 9.64851 6.20412 9.71851 6.23912 9.77451C6.27412 9.83051 6.33129 9.88067 6.41062 9.92501C6.48995 9.96934 6.59729 10.0172 6.73262 10.0685C6.87962 10.1222 7.00329 10.1805 7.10362 10.2435C7.20629 10.3042 7.28329 10.3777 7.33462 10.464C7.38829 10.5503 7.41512 10.6588 7.41512 10.7895ZM7.71902 10.6565V10.3835H8.56602V10.6565H7.71902ZM9.73595 8.95901C9.94362 8.95901 10.1139 8.98584 10.2469 9.03951C10.3823 9.09084 10.4826 9.16901 10.5479 9.27401C10.6133 9.37901 10.6459 9.51084 10.6459 9.66951C10.6459 9.80251 10.6214 9.91334 10.5724 10.002C10.5234 10.0907 10.4604 10.1618 10.3834 10.2155C10.3088 10.2668 10.2294 10.3077 10.1454 10.338L10.8314 11.458H10.4639L9.85845 10.4255H9.36145V11.458H9.04645V8.95901H9.73595ZM9.71845 9.23201H9.36145V10.1595H9.73595C9.93895 10.1595 10.0871 10.1198 10.1804 10.0405C10.2738 9.95884 10.3204 9.83984 10.3204 9.68351C10.3204 9.57384 10.2983 9.48634 10.2539 9.42101C10.2119 9.35567 10.1466 9.30784 10.0579 9.27751C9.96928 9.24717 9.85612 9.23201 9.71845 9.23201ZM11.7942 10.499C11.7942 10.6857 11.7755 10.8688 11.7382 11.0485C11.7032 11.2282 11.6472 11.3985 11.5702 11.5595C11.4955 11.7228 11.3987 11.8733 11.2797 12.011H10.9927C11.1 11.864 11.1899 11.7077 11.2622 11.542C11.3345 11.3787 11.3894 11.2083 11.4267 11.031C11.464 10.8537 11.4827 10.6752 11.4827 10.4955C11.4827 10.3112 11.464 10.1292 11.4267 9.94951C11.3894 9.76984 11.3345 9.59601 11.2622 9.42801C11.1899 9.26001 11.0989 9.10367 10.9892 8.95901H11.2797C11.3987 9.09901 11.4955 9.25184 11.5702 9.41751C11.6472 9.58317 11.7032 9.75701 11.7382 9.93901C11.7755 10.121 11.7942 10.3077 11.7942 10.499Z" fill="black"/>
</svg>
