<svg width="16" height="16" viewBox="0 0 16 16" fill="none" xmlns="http://www.w3.org/2000/svg">
<circle cx="8" cy="8" r="6.5" fill="black"/>
<path d="M5.91551 7.747C5.91551 7.94067 5.89101 8.11683 5.84201 8.2755C5.79301 8.43183 5.71951 8.56717 5.62151 8.6815C5.52584 8.79583 5.40567 8.88333 5.26101 8.944C5.11867 9.00467 4.95301 9.035 4.76401 9.035C4.56801 9.035 4.39767 9.00467 4.25301 8.944C4.10834 8.881 3.98817 8.7935 3.89251 8.6815C3.79684 8.56717 3.72567 8.43067 3.67901 8.272C3.63234 8.11333 3.60901 7.93717 3.60901 7.7435C3.60901 7.48683 3.65101 7.26283 3.73501 7.0715C3.81901 6.88017 3.94617 6.73083 4.11651 6.6235C4.28917 6.51617 4.50617 6.4625 4.76751 6.4625C5.01717 6.4625 5.22717 6.51617 5.39751 6.6235C5.56784 6.7285 5.69617 6.87783 5.78251 7.0715C5.87117 7.26283 5.91551 7.488 5.91551 7.747ZM3.94151 7.747C3.94151 7.957 3.97067 8.13783 4.02901 8.2895C4.08734 8.44117 4.17717 8.55783 4.29851 8.6395C4.42217 8.72117 4.57734 8.762 4.76401 8.762C4.95301 8.762 5.10701 8.72117 5.22601 8.6395C5.34734 8.55783 5.43717 8.44117 5.49551 8.2895C5.55384 8.13783 5.58301 7.957 5.58301 7.747C5.58301 7.432 5.51767 7.18583 5.38701 7.0085C5.25634 6.82883 5.04984 6.739 4.76751 6.739C4.57851 6.739 4.42217 6.77983 4.29851 6.8615C4.17717 6.94083 4.08734 7.05633 4.02901 7.208C3.97067 7.35733 3.94151 7.537 3.94151 7.747ZM7.05388 8.783C7.10055 8.783 7.14838 8.7795 7.19738 8.7725C7.24638 8.76317 7.28605 8.75383 7.31638 8.7445V8.979C7.28372 8.99533 7.23705 9.00817 7.17638 9.0175C7.11572 9.02917 7.05738 9.035 7.00138 9.035C6.90338 9.035 6.81238 9.01867 6.72838 8.986C6.64672 8.951 6.58022 8.8915 6.52888 8.8075C6.47755 8.7235 6.45188 8.60567 6.45188 8.454V7.362H6.18588V7.215L6.45538 7.0925L6.57788 6.6935H6.75988V7.124H7.30238V7.362H6.75988V8.447C6.75988 8.56133 6.78672 8.6465 6.84038 8.7025C6.89638 8.75617 6.96755 8.783 7.05388 8.783ZM8.00003 7.1205C8.00003 7.16483 7.9977 7.21033 7.99303 7.257C7.9907 7.30367 7.9872 7.34567 7.98253 7.383H8.00353C8.0432 7.31767 8.09336 7.264 8.15403 7.222C8.2147 7.18 8.28236 7.1485 8.35703 7.1275C8.4317 7.10417 8.5087 7.0925 8.58803 7.0925C8.7397 7.0925 8.8657 7.117 8.96603 7.166C9.0687 7.21267 9.1457 7.28617 9.19703 7.3865C9.24836 7.48683 9.27403 7.6175 9.27403 7.7785V9H8.96953V7.7995C8.96953 7.64783 8.9357 7.53467 8.86803 7.46C8.80036 7.38533 8.6942 7.348 8.54953 7.348C8.40953 7.348 8.29986 7.37483 8.22053 7.4285C8.1412 7.47983 8.08403 7.55683 8.04903 7.6595C8.01636 7.75983 8.00003 7.8835 8.00003 8.0305V9H7.69203V6.34H8.00003V7.1205ZM10.5801 7.089C10.7411 7.089 10.8788 7.124 10.9931 7.194C11.1098 7.264 11.1984 7.36317 11.2591 7.4915C11.3221 7.6175 11.3536 7.76567 11.3536 7.936V8.1215H10.0691C10.0738 8.33383 10.1274 8.496 10.2301 8.608C10.3351 8.71767 10.4809 8.7725 10.6676 8.7725C10.7866 8.7725 10.8916 8.762 10.9826 8.741C11.0759 8.71767 11.1716 8.685 11.2696 8.643V8.9125C11.1739 8.9545 11.0794 8.98483 10.9861 9.0035C10.8928 9.0245 10.7819 9.035 10.6536 9.035C10.4763 9.035 10.3188 8.99883 10.1811 8.9265C10.0458 8.85417 9.93961 8.74683 9.86261 8.6045C9.78794 8.45983 9.75061 8.28367 9.75061 8.076C9.75061 7.87067 9.78444 7.6945 9.85211 7.5475C9.92211 7.4005 10.0189 7.28733 10.1426 7.208C10.2686 7.12867 10.4144 7.089 10.5801 7.089ZM10.5766 7.341C10.4296 7.341 10.3129 7.38883 10.2266 7.4845C10.1426 7.57783 10.0924 7.7085 10.0761 7.8765H11.0316C11.0316 7.76917 11.0153 7.67583 10.9826 7.5965C10.9499 7.51717 10.8998 7.45533 10.8321 7.411C10.7668 7.36433 10.6816 7.341 10.5766 7.341ZM12.7062 7.089C12.7412 7.089 12.7785 7.09133 12.8182 7.096C12.8602 7.09833 12.8964 7.103 12.9267 7.11L12.8882 7.3935C12.8579 7.3865 12.824 7.38067 12.7867 7.376C12.7517 7.37133 12.7179 7.369 12.6852 7.369C12.6129 7.369 12.544 7.38417 12.4787 7.4145C12.4134 7.44483 12.355 7.488 12.3037 7.544C12.2524 7.59767 12.2115 7.663 12.1812 7.74C12.1532 7.817 12.1392 7.90333 12.1392 7.999V9H11.8312V7.124H12.0832L12.1182 7.467H12.1322C12.1719 7.397 12.2197 7.334 12.2757 7.278C12.3317 7.21967 12.3959 7.17417 12.4682 7.1415C12.5405 7.1065 12.6199 7.089 12.7062 7.089Z" fill="white"/>
</svg>
