<svg width="16" height="16" viewBox="0 0 16 16" fill="none" xmlns="http://www.w3.org/2000/svg">
<path d="M5.06121 13.0315L2.96817 10.9385L6.20614 7.7005L7.21332 6.69333L11.1311 2.77551L11.1317 2.7751C11.1342 2.77347 11.1384 2.77085 11.1444 2.76764C11.1564 2.76122 11.1756 2.75243 11.2022 2.7446C11.2552 2.729 11.3389 2.71684 11.4558 2.73603C11.6901 2.77449 12.0618 2.93972 12.5861 3.46404C13.1107 3.98869 13.2623 4.34691 13.2886 4.56697C13.3017 4.67652 13.2839 4.753 13.2646 4.80072C13.2549 4.82473 13.2446 4.84186 13.2372 4.85253C13.2335 4.85787 13.2305 4.86159 13.2287 4.86375L13.2269 4.86582L13.2269 4.86584L13.227 4.86572L13.2271 4.86565M5.06121 13.0315L13.2625 4.90092C13.2272 4.86556 13.2271 4.86561 13.2271 4.86565M5.06121 13.0315L13.2268 4.86589L13.2271 4.86565M5.06121 13.0315L13.2271 4.86565" fill="#FFCCFF" stroke="black" stroke-width="0.1"/>
<path d="M4.51936 11.4803C4.81349 11.7745 5.01453 12.1025 5.10332 12.3932C5.19284 12.6862 5.16517 12.9276 5.0257 13.067C4.88623 13.2065 4.64484 13.2342 4.35183 13.1446C4.06118 13.0559 3.73314 12.8548 3.43901 12.5607C3.14487 12.2665 2.94383 11.9385 2.85504 11.6479C2.76552 11.3548 2.7932 11.1135 2.93266 10.974C3.07213 10.8345 3.31352 10.8068 3.60653 10.8964C3.89718 10.9852 4.22522 11.1862 4.51936 11.4803Z" fill="#B0B0B0" stroke="black" stroke-width="0.1"/>
</svg>
