<svg width="16" height="16" viewBox="0 0 16 16" fill="none" xmlns="http://www.w3.org/2000/svg">
<path d="M10.86 8.91047V3.1875H3.84V9.69088M3.84 9.69088H6.96M3.84 9.69088H1.5" stroke="black" stroke-width="0.5"/>
<path fill-rule="evenodd" clip-rule="evenodd" d="M13.2003 12.032V10.7314L11.6803 9.69086L13.2003 8.65034V7.34967L10.7303 9.04052L8.26025 7.34961V8.65029L9.7803 9.69086L8.26025 10.7314V12.0321L10.7303 10.3412L13.2003 12.032Z" fill="#43A0F8"/>
<path d="M13.2003 10.7314H13.3253V10.6655L13.2709 10.6282L13.2003 10.7314ZM13.2003 12.032L13.1296 12.1352L13.3253 12.2691V12.032H13.2003ZM11.6803 9.69086L11.6097 9.58771L11.459 9.69086L11.6097 9.794L11.6803 9.69086ZM13.2003 8.65034L13.2709 8.75349L13.3253 8.71626V8.65034H13.2003ZM13.2003 7.34967H13.3253V7.11261L13.1296 7.24652L13.2003 7.34967ZM10.7303 9.04052L10.6597 9.14366L10.7303 9.192L10.8009 9.14366L10.7303 9.04052ZM8.26025 7.34961L8.33086 7.24646L8.13525 7.11255V7.34961H8.26025ZM8.26025 8.65029H8.13525V8.7162L8.18964 8.75343L8.26025 8.65029ZM9.7803 9.69086L9.85091 9.794L10.0016 9.69086L9.85091 9.58771L9.7803 9.69086ZM8.26025 10.7314L8.18964 10.6283L8.13525 10.6655V10.7314H8.26025ZM8.26025 12.0321H8.13525V12.2692L8.33086 12.1352L8.26025 12.0321ZM10.7303 10.3412L10.8009 10.238L10.7303 10.1897L10.6597 10.238L10.7303 10.3412ZM13.0753 10.7314V12.032H13.3253V10.7314H13.0753ZM11.6097 9.794L13.1296 10.8345L13.2709 10.6282L11.7509 9.58771L11.6097 9.794ZM11.7509 9.794L13.2709 8.75349L13.1296 8.5472L11.6097 9.58771L11.7509 9.794ZM13.3253 8.65034V7.34967H13.0753V8.65034H13.3253ZM13.1296 7.24652L10.6597 8.93737L10.8009 9.14366L13.2709 7.45282L13.1296 7.24652ZM8.18964 7.45276L10.6597 9.14366L10.8009 8.93737L8.33086 7.24646L8.18964 7.45276ZM8.38525 8.65029V7.34961H8.13525V8.65029H8.38525ZM9.85091 9.58771L8.33086 8.54714L8.18964 8.75343L9.70969 9.794L9.85091 9.58771ZM9.70969 9.58771L8.18964 10.6283L8.33086 10.8346L9.85091 9.794L9.70969 9.58771ZM8.13525 10.7314V12.0321H8.38525V10.7314H8.13525ZM8.33086 12.1352L10.8009 10.4443L10.6597 10.238L8.18964 11.929L8.33086 12.1352ZM13.2709 11.9289L10.8009 10.238L10.6597 10.4443L13.1296 12.1352L13.2709 11.9289Z" fill="black"/>
<path d="M7.08496 7.34934C7.08496 6.98759 7.37821 6.69434 7.73996 6.69434C8.10171 6.69434 8.39496 6.98759 8.39496 7.34934V12.0326C8.39496 12.3943 8.10171 12.6876 7.73996 12.6876C7.37821 12.6876 7.08496 12.3943 7.08496 12.0326V7.34934Z" fill="#43A0F8" stroke="black" stroke-width="0.25"/>
<path d="M13.0654 7.34934C13.0654 6.98759 13.3587 6.69434 13.7204 6.69434C14.0822 6.69434 14.3754 6.98759 14.3754 7.34934V12.0326C14.3754 12.3943 14.0822 12.6876 13.7204 12.6876C13.3587 12.6876 13.0654 12.3943 13.0654 12.0326V7.34934Z" fill="#43A0F8" stroke="black" stroke-width="0.25"/>
<path d="M10.9111 3.96777L12.2621 6.30899H9.56006L10.9111 3.96777Z" fill="black"/>
</svg>
