<svg width="16" height="16" viewBox="0 0 16 16" fill="none" xmlns="http://www.w3.org/2000/svg">
<path d="M13 9.36842C13 12.2025 10.7614 14.5 8 14.5C5.23858 14.5 3 12.2025 3 9.36842C3 6.53433 7.83333 1.5 7.83333 1.5C7.83333 1.5 13 6.53433 13 9.36842Z" fill="#0080FF"/>
<path d="M5.59726 8.358C5.87726 8.358 6.08126 8.413 6.20926 8.523C6.33726 8.633 6.40126 8.788 6.40126 8.988C6.40126 9.076 6.38626 9.161 6.35626 9.243C6.32826 9.323 6.28126 9.395 6.21526 9.459C6.14926 9.523 6.06126 9.574 5.95126 9.612C5.84126 9.648 5.70626 9.666 5.54626 9.666H5.30026V10.5H5.03026V8.358H5.59726ZM5.57326 8.589H5.30026V9.435H5.51626C5.65226 9.435 5.76526 9.421 5.85526 9.393C5.94526 9.363 6.01226 9.316 6.05626 9.252C6.10026 9.188 6.12226 9.104 6.12226 9C6.12226 8.862 6.07826 8.759 5.99026 8.691C5.90226 8.623 5.76326 8.589 5.57326 8.589ZM9.30666 8.358L8.73666 10.5H8.46366L8.04666 9.096C8.03466 9.054 8.02266 9.011 8.01066 8.967C7.99866 8.923 7.98766 8.881 7.97766 8.841C7.96766 8.801 7.95866 8.767 7.95066 8.739C7.94466 8.709 7.94066 8.687 7.93866 8.673C7.93666 8.687 7.93266 8.709 7.92666 8.739C7.92266 8.767 7.91566 8.801 7.90566 8.841C7.89566 8.881 7.88466 8.924 7.87266 8.97C7.86266 9.014 7.85066 9.059 7.83666 9.105L7.43166 10.5H7.15866L6.59166 8.358H6.87366L7.20666 9.666C7.21866 9.712 7.22966 9.758 7.23966 9.804C7.24966 9.848 7.25866 9.892 7.26666 9.936C7.27666 9.978 7.28466 10.019 7.29066 10.059C7.29666 10.099 7.30266 10.138 7.30866 10.176C7.31466 10.136 7.32066 10.095 7.32666 10.053C7.33466 10.011 7.34366 9.968 7.35366 9.924C7.36366 9.878 7.37466 9.832 7.38666 9.786C7.39866 9.74 7.41066 9.695 7.42266 9.651L7.80066 8.358H8.07966L8.47266 9.66C8.48666 9.706 8.49966 9.753 8.51166 9.801C8.52366 9.847 8.53466 9.892 8.54466 9.936C8.55466 9.98 8.56266 10.023 8.56866 10.065C8.57666 10.105 8.58366 10.142 8.58966 10.176C8.59566 10.126 8.60366 10.074 8.61366 10.02C8.62366 9.964 8.63566 9.906 8.64966 9.846C8.66366 9.786 8.67866 9.725 8.69466 9.663L9.02466 8.358H9.30666ZM10.9797 10.5L10.7217 9.837H9.87273L9.61773 10.5H9.34473L10.1817 8.349H10.4247L11.2587 10.5H10.9797ZM10.4007 8.949C10.3947 8.933 10.3847 8.904 10.3707 8.862C10.3567 8.82 10.3427 8.777 10.3287 8.733C10.3167 8.687 10.3067 8.652 10.2987 8.628C10.2887 8.668 10.2777 8.709 10.2657 8.751C10.2557 8.791 10.2447 8.828 10.2327 8.862C10.2227 8.896 10.2137 8.925 10.2057 8.949L9.96273 9.597H10.6407L10.4007 8.949Z" fill="black"/>
</svg>
