<svg width="16" height="16" viewBox="0 0 16 16" fill="none" xmlns="http://www.w3.org/2000/svg">
<circle cx="8" cy="8" r="6.25" fill="#EA3341" stroke="black" stroke-width="0.5"/>
<path d="M4.00803 7.144C4.24536 7.144 4.44003 7.17467 4.59203 7.236C4.7467 7.29467 4.86136 7.384 4.93603 7.504C5.0107 7.624 5.04803 7.77467 5.04803 7.956C5.04803 8.108 5.02003 8.23467 4.96403 8.336C4.90803 8.43733 4.83603 8.51867 4.74803 8.58C4.6627 8.63867 4.57203 8.68533 4.47603 8.72L5.26003 10H4.84003L4.14803 8.82H3.58003V10H3.22003V7.144H4.00803ZM3.98803 7.456H3.58003V8.516H4.00803C4.24003 8.516 4.40936 8.47067 4.51603 8.38C4.6227 8.28667 4.67603 8.15067 4.67603 7.972C4.67603 7.84667 4.6507 7.74667 4.60003 7.672C4.55203 7.59733 4.47736 7.54267 4.37603 7.508C4.2747 7.47333 4.14536 7.456 3.98803 7.456ZM8.98831 7.144L8.22831 10H7.86431L7.30831 8.128C7.29231 8.072 7.27631 8.01467 7.26031 7.956C7.24431 7.89733 7.22965 7.84133 7.21631 7.788C7.20298 7.73467 7.19098 7.68933 7.18031 7.652C7.17231 7.612 7.16698 7.58267 7.16431 7.564C7.16165 7.58267 7.15631 7.612 7.14831 7.652C7.14298 7.68933 7.13365 7.73467 7.12031 7.788C7.10698 7.84133 7.09231 7.89867 7.07631 7.96C7.06298 8.01867 7.04698 8.07867 7.02831 8.14L6.48831 10H6.12431L5.36831 7.144H5.74431L6.18831 8.888C6.20431 8.94933 6.21898 9.01067 6.23231 9.072C6.24565 9.13067 6.25765 9.18933 6.26831 9.248C6.28165 9.304 6.29231 9.35867 6.30031 9.412C6.30831 9.46533 6.31631 9.51733 6.32431 9.568C6.33231 9.51467 6.34031 9.46 6.34831 9.404C6.35898 9.348 6.37098 9.29067 6.38431 9.232C6.39765 9.17067 6.41231 9.10933 6.42831 9.048C6.44431 8.98667 6.46031 8.92667 6.47631 8.868L6.98031 7.144H7.35231L7.87631 8.88C7.89498 8.94133 7.91231 9.004 7.92831 9.068C7.94431 9.12933 7.95898 9.18933 7.97231 9.248C7.98565 9.30667 7.99631 9.364 8.00431 9.42C8.01498 9.47333 8.02431 9.52267 8.03231 9.568C8.04031 9.50133 8.05098 9.432 8.06431 9.36C8.07765 9.28533 8.09365 9.208 8.11231 9.128C8.13098 9.048 8.15098 8.96667 8.17231 8.884L8.61231 7.144H8.98831ZM10.6871 10L9.74706 7.496H9.73106C9.7364 7.54933 9.7404 7.61733 9.74306 7.7C9.7484 7.78267 9.7524 7.87333 9.75506 7.972C9.75773 8.068 9.75906 8.16667 9.75906 8.268V10H9.42706V7.144H9.95906L10.8391 9.484H10.8551L11.7511 7.144H12.2791V10H11.9231V8.244C11.9231 8.15067 11.9244 8.05867 11.9271 7.968C11.9297 7.87467 11.9337 7.788 11.9391 7.708C11.9444 7.62533 11.9484 7.556 11.9511 7.5H11.9351L10.9831 10H10.6871Z" fill="black"/>
</svg>
