<svg width="16" height="16" viewBox="0 0 16 16" fill="none" xmlns="http://www.w3.org/2000/svg">
<mask id="path-2-inside-1_4070_1677" fill="white">
<path fill-rule="evenodd" clip-rule="evenodd" d="M13.4093 9C12.9391 11.5601 10.6961 13.5 8 13.5C5.30393 13.5 3.06094 11.5601 2.59069 9H2V7H2.59069C3.06094 4.43988 5.30393 2.5 8 2.5C10.6961 2.5 12.9391 4.43988 13.4093 7H14V9H13.4093ZM3.6 8C3.6 10.4301 5.56995 12.4 8 12.4C9.03486 12.4 9.98628 12.0427 10.7376 11.4448L8.64641 9.35359C8.45061 9.44729 8.23131 9.49976 7.99976 9.49976C7.17133 9.49976 6.49976 8.82818 6.49976 7.99976C6.49976 7.7682 6.55222 7.5489 6.64592 7.3531L4.55518 5.26236C3.95726 6.01372 3.6 6.96514 3.6 8ZM12.4 8C12.4 9.0349 12.0427 9.98635 11.4448 10.7377L9.35355 8.64651C9.44727 8.45068 9.49976 8.23135 9.49976 7.99976C9.49976 7.17133 8.82818 6.49976 7.99976 6.49976C7.76816 6.49976 7.54883 6.55224 7.353 6.64597L5.26227 4.55524C6.01365 3.95729 6.9651 3.6 8 3.6C10.4301 3.6 12.4 5.56995 12.4 8Z"/>
</mask>
<path fill-rule="evenodd" clip-rule="evenodd" d="M13.4093 9C12.9391 11.5601 10.6961 13.5 8 13.5C5.30393 13.5 3.06094 11.5601 2.59069 9H2V7H2.59069C3.06094 4.43988 5.30393 2.5 8 2.5C10.6961 2.5 12.9391 4.43988 13.4093 7H14V9H13.4093ZM3.6 8C3.6 10.4301 5.56995 12.4 8 12.4C9.03486 12.4 9.98628 12.0427 10.7376 11.4448L8.64641 9.35359C8.45061 9.44729 8.23131 9.49976 7.99976 9.49976C7.17133 9.49976 6.49976 8.82818 6.49976 7.99976C6.49976 7.7682 6.55222 7.5489 6.64592 7.3531L4.55518 5.26236C3.95726 6.01372 3.6 6.96514 3.6 8ZM12.4 8C12.4 9.0349 12.0427 9.98635 11.4448 10.7377L9.35355 8.64651C9.44727 8.45068 9.49976 8.23135 9.49976 7.99976C9.49976 7.17133 8.82818 6.49976 7.99976 6.49976C7.76816 6.49976 7.54883 6.55224 7.353 6.64597L5.26227 4.55524C6.01365 3.95729 6.9651 3.6 8 3.6C10.4301 3.6 12.4 5.56995 12.4 8Z" fill="#FD6E01"/>
<path d="M13.4093 9V8.75H13.2011L13.1634 8.95483L13.4093 9ZM2.59069 9L2.83657 8.95483L2.79895 8.75H2.59069V9ZM2 9H1.75V9.25H2V9ZM2 7V6.75H1.75V7H2ZM2.59069 7V7.25H2.79895L2.83657 7.04517L2.59069 7ZM13.4093 7L13.1634 7.04517L13.2011 7.25H13.4093V7ZM14 7H14.25V6.75H14V7ZM14 9V9.25H14.25V9H14ZM10.7376 11.4448L10.8933 11.6404L11.1124 11.4661L10.9144 11.268L10.7376 11.4448ZM8.64641 9.35359L8.82319 9.17682L8.69809 9.05172L8.5385 9.12808L8.64641 9.35359ZM6.64592 7.3531L6.87143 7.46101L6.94779 7.30142L6.82269 7.17632L6.64592 7.3531ZM4.55518 5.26236L4.73195 5.08558L4.53393 4.88756L4.35956 5.10669L4.55518 5.26236ZM11.4448 10.7377L11.268 10.9145L11.466 11.1125L11.6404 10.8934L11.4448 10.7377ZM9.35355 8.64651L9.12804 8.53859L9.05166 8.69818L9.17677 8.82329L9.35355 8.64651ZM7.353 6.64597L7.17622 6.82274L7.30133 6.94785L7.46092 6.87147L7.353 6.64597ZM5.26227 4.55524L5.1066 4.35963L4.88748 4.534L5.0855 4.73202L5.26227 4.55524ZM8 13.75C10.8189 13.75 13.1635 11.7218 13.6552 9.04517L13.1634 8.95483C12.7146 11.3984 10.5733 13.25 8 13.25V13.75ZM2.3448 9.04517C2.83646 11.7218 5.18111 13.75 8 13.75V13.25C5.42675 13.25 3.28543 11.3984 2.83657 8.95483L2.3448 9.04517ZM2.59069 8.75H2V9.25H2.59069V8.75ZM2.25 9V7H1.75V9H2.25ZM2 7.25H2.59069V6.75H2V7.25ZM8 2.25C5.18111 2.25 2.83646 4.27819 2.3448 6.95483L2.83657 7.04517C3.28543 4.60157 5.42675 2.75 8 2.75V2.25ZM13.6552 6.95483C13.1635 4.27819 10.8189 2.25 8 2.25V2.75C10.5733 2.75 12.7146 4.60157 13.1634 7.04517L13.6552 6.95483ZM14 6.75H13.4093V7.25H14V6.75ZM14.25 9V7H13.75V9H14.25ZM13.4093 9.25H14V8.75H13.4093V9.25ZM8 12.15C5.70802 12.15 3.85 10.292 3.85 8H3.35C3.35 10.5681 5.43188 12.65 8 12.65V12.15ZM10.582 11.2492C9.87326 11.8132 8.97631 12.15 8 12.15V12.65C9.09341 12.65 10.0993 12.2723 10.8933 11.6404L10.582 11.2492ZM8.46964 9.53037L10.5609 11.6216L10.9144 11.268L8.82319 9.17682L8.46964 9.53037ZM7.99976 9.74976C8.26945 9.74976 8.52555 9.68858 8.75432 9.57911L8.5385 9.12808C8.37567 9.206 8.19317 9.24976 7.99976 9.24976V9.74976ZM6.24976 7.99976C6.24976 8.96625 7.03326 9.74976 7.99976 9.74976V9.24976C7.3094 9.24976 6.74976 8.69011 6.74976 7.99976H6.24976ZM6.4204 7.24519C6.31093 7.47396 6.24976 7.73007 6.24976 7.99976H6.74976C6.74976 7.80634 6.79351 7.62384 6.87143 7.46101L6.4204 7.24519ZM4.3784 5.43913L6.46914 7.52988L6.82269 7.17632L4.73195 5.08558L4.3784 5.43913ZM3.85 8C3.85 7.02369 4.18682 6.12674 4.7508 5.41803L4.35956 5.10669C3.7277 5.90071 3.35 6.90659 3.35 8H3.85ZM11.6404 10.8934C12.2723 10.0994 12.65 9.09345 12.65 8H12.15C12.15 8.97635 11.8132 9.87333 11.2491 10.5821L11.6404 10.8934ZM9.17677 8.82329L11.268 10.9145L11.6215 10.5609L9.53032 8.46974L9.17677 8.82329ZM9.24976 7.99976C9.24976 8.19321 9.20599 8.37573 9.12804 8.53859L9.57905 8.75444C9.68856 8.52564 9.74976 8.26949 9.74976 7.99976H9.24976ZM7.99976 6.74976C8.69011 6.74976 9.24976 7.3094 9.24976 7.99976H9.74976C9.74976 7.03326 8.96625 6.24976 7.99976 6.24976V6.74976ZM7.46092 6.87147C7.62378 6.79353 7.80631 6.74976 7.99976 6.74976V6.24976C7.73002 6.24976 7.47388 6.31096 7.24507 6.42046L7.46092 6.87147ZM5.0855 4.73202L7.17622 6.82274L7.52977 6.46919L5.43905 4.37847L5.0855 4.73202ZM8 3.35C6.90655 3.35 5.90063 3.72773 5.1066 4.35963L5.41795 4.75086C6.12667 4.18685 7.02365 3.85 8 3.85V3.35ZM12.65 8C12.65 5.43188 10.5681 3.35 8 3.35V3.85C10.292 3.85 12.15 5.70802 12.15 8H12.65Z" fill="black" mask="url(#path-2-inside-1_4070_1677)"/>
<rect x="-0.125" y="0.125" width="0.75" height="7.25" rx="0.375" transform="matrix(-1 0 0 1 2.25 4)" fill="#FD6E01" stroke="black" stroke-width="0.25"/>
<rect x="13.625" y="4.125" width="0.75" height="7.25" rx="0.375" fill="#FD6E01" stroke="black" stroke-width="0.25"/>
</svg>
