<svg width="16" height="16" viewBox="0 0 16 16" fill="none" xmlns="http://www.w3.org/2000/svg">
<rect x="1.625" y="4.375" width="1.25" height="7.25" rx="0.625" fill="#43A0F8" stroke="black" stroke-width="0.25"/>
<rect x="13.125" y="4.375" width="1.25" height="7.25" rx="0.625" fill="#43A0F8" stroke="black" stroke-width="0.25"/>
<mask id="path-4-inside-1_2698_120954" fill="white">
<path fill-rule="evenodd" clip-rule="evenodd" d="M13.25 5.25V6.75L9.96875 8L13.25 9.25V10.75L8 8.75L2.75 10.75V9.25L6.03125 8L2.75 6.75V5.25L8 7.25L13.25 5.25Z"/>
</mask>
<path fill-rule="evenodd" clip-rule="evenodd" d="M13.25 5.25V6.75L9.96875 8L13.25 9.25V10.75L8 8.75L2.75 10.75V9.25L6.03125 8L2.75 6.75V5.25L8 7.25L13.25 5.25Z" fill="#43A0F8"/>
<path d="M13.25 6.75L13.339 6.98362L13.5 6.92229V6.75H13.25ZM13.25 5.25H13.5V4.88724L13.161 5.01638L13.25 5.25ZM9.96875 8L9.87975 7.76638L9.26649 8L9.87975 8.23362L9.96875 8ZM13.25 9.25H13.5V9.07771L13.339 9.01638L13.25 9.25ZM13.25 10.75L13.161 10.9836L13.5 11.1128V10.75H13.25ZM8 8.75L8.089 8.51638L8 8.48247L7.911 8.51638L8 8.75ZM2.75 10.75H2.5V11.1128L2.839 10.9836L2.75 10.75ZM2.75 9.25L2.661 9.01638L2.5 9.07771V9.25H2.75ZM6.03125 8L6.12025 8.23362L6.73351 8L6.12025 7.76638L6.03125 8ZM2.75 6.75H2.5V6.92229L2.661 6.98362L2.75 6.75ZM2.75 5.25L2.839 5.01638L2.5 4.88724V5.25H2.75ZM8 7.25L7.911 7.48362L8 7.51753L8.089 7.48362L8 7.25ZM13.5 6.75V5.25H13V6.75H13.5ZM10.0577 8.23362L13.339 6.98362L13.161 6.51638L9.87975 7.76638L10.0577 8.23362ZM9.87975 8.23362L13.161 9.48362L13.339 9.01638L10.0577 7.76638L9.87975 8.23362ZM13 9.25V10.75H13.5V9.25H13ZM13.339 10.5164L8.089 8.51638L7.911 8.98362L13.161 10.9836L13.339 10.5164ZM2.839 10.9836L8.089 8.98362L7.911 8.51638L2.661 10.5164L2.839 10.9836ZM2.5 9.25V10.75H3V9.25H2.5ZM5.94225 7.76638L2.661 9.01638L2.839 9.48362L6.12025 8.23362L5.94225 7.76638ZM6.12025 7.76638L2.839 6.51638L2.661 6.98362L5.94225 8.23362L6.12025 7.76638ZM3 6.75V5.25H2.5V6.75H3ZM2.661 5.48362L7.911 7.48362L8.089 7.01638L2.839 5.01638L2.661 5.48362ZM13.161 5.01638L7.911 7.01638L8.089 7.48362L13.339 5.48362L13.161 5.01638Z" fill="black" mask="url(#path-4-inside-1_2698_120954)"/>
</svg>
